{"title":"Colombiana - Cam - 2011 - HP","uid":6634919,"size":1451174067,"categoryP":"video","categoryS":"movies","magnet":"?xt=urn:btih:08bad1b754b7a9dab174d1054aa68ba1ec73325f&amp;dn=Colombiana+-+Cam+-+2011+-+HP&amp;tr=udp%3A%2F%2Ftracker.openbittorrent.com%3A80&amp;tr=udp%3A%2F%2Fopen.demonii.com%3A1337&amp;tr=udp%3A%2F%2Ftracker.coppersurfer.tk%3A6969&amp;tr=udp%3A%2F%2Fexodus.desync.com%3A6969","seeders":1,"leechers":0,"uploader":"SAFCukO09","files":2,"time":1314524876,"description":"Format                           : MPEG-4\nFormat profile                   : Base Media\nCodec ID                         : isom\nFile size                        : 1.35 GiB\nDuration                         : 1h 43mn\nOverall bit rate                 : 1 861 Kbps\n\nVideo\nID                               : 1\nFormat                           : MPEG-4 Visual\nFormat profile                   : Simple@L3\nFormat settings, BVOP            : No\nFormat settings, QPel            : No\nFormat settings, GMC             : No warppoints\nFormat settings, Matrix          : Default (H.263)\nCodec ID                         : 20\nDuration                         : 1h 43mn\nBit rate mode                    : Variable\nBit rate                         : 1 792 Kbps\nWidth                            : 720 pixels\nHeight                           : 480 pixels\nDisplay aspect ratio             : 4:3\nOriginal display aspect ratio    : 3:2\nFrame rate mode                  : Constant\nFrame rate                       : 29.970 fps\nStandard                         : NTSC\nColor space                      : YUV\nChroma subsampling               : 4:2:0\nBit depth                        : 8 bits\nScan type                        : Progressive\nCompression mode                 : Lossy\nBits/(Pixel*Frame)               : 0.173\nStream size                      : 1.30 GiB (96%)\n\nAudio\nID                               : 2\nFormat                           : AAC\nFormat/Info                      : Advanced Audio Codec\nFormat profile                   : LC\nCodec ID                         : 40\nDuration                         : 1h 43mn\nBit rate mode                    : Variable\nBit rate                         : 64.0 Kbps\nChannel(s)                       : 2 channels\nChannel positions                : Front: L R\nSampling rate                    : 44.1 KHz\nCompression mode                 : Lossy\nStream size                      : 47.6 MiB (3%)\n\n\n\n &lt;a href=&quot;\nhttp://www.imdb.com/title/tt1657507/&quot; rel=&quot;nofollow&quot; target=&quot;_NEW&quot;&gt;\nhttp://www.imdb.com/title/tt1657507/&lt;/a&gt;\n\n\n\nStoryline\n\nA young woman grows up to be a stone-cold assassin after witnessing her parents' murder as a child in Bogota. She works for her uncle as a hitman by day, but her personal time is spent engaging in vigilante murders that she hopes will lead her to her ultimate target - the mobster responsible for her parents' death.\n\n &lt;a href=&quot;\nhttp://www.freeimagehosting.net/newuploads/cbdaa.png&quot; rel=&quot;nofollow&quot; target=&quot;_NEW&quot;&gt;\nhttp://www.freeimagehosting.net/newuploads/cbdaa.png&lt;/a&gt; &lt;a href=&quot;\nhttp://www.freeimagehosting.net/newuploads/cdea9.png&quot; rel=&quot;nofollow&quot; target=&quot;_NEW&quot;&gt;\nhttp://www.freeimagehosting.net/newuploads/cdea9.png&lt;/a&gt; &lt;a href=&quot;\nhttp://www.freeimagehosting.net/newuploads/c147e.png&quot; rel=&quot;nofollow&quot; target=&quot;_NEW&quot;&gt;\nhttp://www.freeimagehosting.net/newuploads/c147e.png&lt;/a&gt;","torrent":{"xt":"urn:btih:08bad1b754b7a9dab174d1054aa68ba1ec73325f","amp;dn":"Colombiana+-+Cam+-+2011+-+HP","amp;tr":["udp%3A%2F%2Ftracker.openbittorrent.com%3A80","udp%3A%2F%2Fopen.demonii.com%3A1337","udp%3A%2F%2Ftracker.coppersurfer.tk%3A6969","udp%3A%2F%2Fexodus.desync.com%3A6969"],"infoHash":"08bad1b754b7a9dab174d1054aa68ba1ec73325f","infoHashBuffer":{"type":"Buffer","data":[8,186,209,183,84,183,169,218,177,116,209,5,74,166,139,161,236,115,50,95]},"announce":[],"urlList":[]}}